<svg xmlns="http://www.w3.org/2000/svg" version="1.1" xmlns:xlink="http://www.w3.org/1999/xlink" xmlns:svgjs="http://svgjs.dev/svgjs" width="1000" height="1000" viewBox="0 0 1000 1000"><g transform="matrix(1,0,0,1,-0.14221556886212738,-0.14221556886229791)"><svg viewBox="0 0 334 334" data-background-color="#ffffff" preserveAspectRatio="xMidYMid meet" height="1000" width="1000" xmlns="http://www.w3.org/2000/svg" xmlns:xlink="http://www.w3.org/1999/xlink"><g id="tight-bounds" transform="matrix(1,0,0,1,0.04749999999998522,0.04750000000001364)"><svg viewBox="0 0 333.90454557049503 333.90454557049503" height="333.90454557049503" width="333.90454557049503"><g><svg></svg></g><g><svg viewBox="0 0 333.90454557049503 333.90454557049503" height="333.90454557049503" width="333.90454557049503"><g><path d="M0 166.952c0-92.205 74.747-166.952 166.952-166.952 92.205 0 166.952 74.747 166.953 166.952 0 92.205-74.747 166.952-166.953 166.953-92.205 0-166.952-74.747-166.952-166.953zM166.952 316.63c82.665 0 149.677-67.013 149.678-149.678 0-82.665-67.013-149.677-149.678-149.677-82.665 0-149.677 67.013-149.677 149.677 0 82.665 67.013 149.677 149.677 149.678z" data-fill-palette-color="tertiary" fill="#3daa97" stroke="transparent"></path><ellipse rx="160.27418187383762" ry="160.27418187383762" cx="166.95227278524752" cy="166.95227278524752" fill="#3daa97" stroke="transparent" stroke-width="0" fill-opacity="1" data-fill-palette-color="tertiary"></ellipse></g><g transform="matrix(1,0,0,1,106.24514913164111,71.17305217166896)"><svg viewBox="0 0 121.41424730721282 191.55844122715712" height="191.55844122715712" width="121.41424730721282"><g><svg viewBox="0 0 121.41424730721282 191.55844122715712" height="191.55844122715712" width="121.41424730721282"><g><svg viewBox="0 0 121.41424730721282 191.55844122715712" height="191.55844122715712" width="121.41424730721282"><g><svg viewBox="0 0 121.41424730721282 191.55844122715712" height="191.55844122715712" width="121.41424730721282"><g id="textblocktransform"><svg viewBox="0 0 121.41424730721282 191.55844122715712" height="191.55844122715712" width="121.41424730721282" id="textblock"><g><svg viewBox="0 0 121.41424730721282 191.55844122715712" height="191.55844122715712" width="121.41424730721282"><g transform="matrix(1,0,0,1,0,0)"><svg width="121.41424730721282" viewBox="1.2200000286102295 -32.709999084472656 21.05000114440918 33.20000076293945" height="191.55844122715712" data-palette-color="#ffffff"><path d="M1.51-23.88L1.51-23.88Q1.51-27.54 4.76-30.13 8.01-32.71 11.91-32.71L11.91-32.71Q12.94-32.71 14.04-32.57 15.14-32.42 15.89-32.28 16.65-32.13 17.99-31.81 19.34-31.49 20.12-31.35L20.12-31.35Q20.65-26.61 20.65-23.24L20.65-23.24Q20.46-22.75 19.92-22.75L19.92-22.75Q18.51-22.75 18.41-23.1L18.41-23.1Q18.07-25.54 16.31-27.76 14.55-29.98 11.96-29.98L11.96-29.98Q10.3-29.98 9.16-28.96 8.01-27.93 8.01-25.68L8.01-25.68Q8.01-24.71 8.5-23.78 8.98-22.85 10.13-21.88 11.28-20.9 12.01-20.41 12.74-19.92 14.4-18.85L14.4-18.85Q14.84-18.55 15.09-18.41L15.09-18.41Q15.48-18.16 16.7-17.43 17.92-16.7 18.43-16.33 18.95-15.97 19.85-15.14 20.75-14.31 21.17-13.5 21.58-12.7 21.92-11.4 22.27-10.11 22.27-8.54L22.27-8.54Q22.27-4.64 19.04-2.08 15.82 0.49 11.62 0.49L11.62 0.49Q7.76 0.49 2.34-0.78L2.34-0.78Q1.95-2.34 1.59-5.05 1.22-7.76 1.22-8.89L1.22-8.89Q1.37-9.38 2.1-9.38L2.1-9.38Q3.61-9.38 3.66-9.08L3.66-9.08Q4.05-6.84 6.1-4.57 8.15-2.29 10.64-2.29L10.64-2.29Q15.48-2.29 15.48-7.62L15.48-7.62Q15.48-8.45 15.04-9.25 14.6-10.06 13.72-10.84 12.84-11.62 12.16-12.11 11.47-12.6 10.23-13.38 8.98-14.16 8.64-14.4L8.64-14.4Q8.4-14.55 7.91-14.89L7.91-14.89Q6.3-15.97 5.47-16.6 4.64-17.24 3.54-18.36 2.44-19.48 1.98-20.83 1.51-22.17 1.51-23.88Z" opacity="1" transform="matrix(1,0,0,1,0,0)" fill="#ffffff" class="undefined-text-0" data-fill-palette-color="quaternary" id="text-0"></path></svg></g></svg></g></svg></g></svg></g><g></g></svg></g></svg></g></svg></g></svg></g><defs></defs></svg><rect width="333.90454557049503" height="333.90454557049503" fill="none" stroke="none" visibility="hidden"></rect></g></svg></g></svg>